<svg width="24" height="24" viewBox="0 0 24 24" fill="none" xmlns="http://www.w3.org/2000/svg">
<path fill-rule="evenodd" clip-rule="evenodd" d="M12 22.5C17.799 22.5 22.5 17.799 22.5 12C22.5 6.20101 17.799 1.5 12 1.5C6.20101 1.5 1.5 6.20101 1.5 12C1.5 17.799 6.20101 22.5 12 22.5ZM12 6.1875C12.6213 6.1875 13.125 6.69118 13.125 7.3125V12.1875C13.125 12.8088 12.6213 13.3125 12 13.3125C11.3787 13.3125 10.875 12.8088 10.875 12.1875V7.3125C10.875 6.69118 11.3787 6.1875 12 6.1875ZM13.5 16.3125C13.5 17.141 12.8284 17.8125 12 17.8125C11.1716 17.8125 10.5 17.141 10.5 16.3125C10.5 15.4841 11.1716 14.8125 12 14.8125C12.8284 14.8125 13.5 15.4841 13.5 16.3125Z" fill="#FF594D"/>
</svg>
