<svg width="233" height="48" viewBox="0 0 233 48" fill="none" xmlns="http://www.w3.org/2000/svg">
<g clip-path="url(#clip0_15478_25933)">
<path d="M12.8124 37.3051C19.8884 37.3051 25.6247 31.5689 25.6247 24.4928C25.6247 17.4167 19.8884 11.6804 12.8124 11.6804C5.73629 11.6804 0 17.4167 0 24.4928C0 31.5689 5.73629 37.3051 12.8124 37.3051Z" fill="#F0D224"/>
<path d="M34.8949 31.3917C38.7159 31.3917 41.8134 28.2942 41.8134 24.4733C41.8134 20.6523 38.7159 17.5548 34.8949 17.5548C31.0739 17.5548 27.9764 20.6523 27.9764 24.4733C27.9764 28.2942 31.0739 31.3917 34.8949 31.3917Z" fill="#F0D224"/>
<path d="M52.1941 31.3006C55.9658 30.6883 58.5269 27.1346 57.9147 23.363C57.3025 19.5913 53.7487 17.0302 49.9771 17.6424C46.2055 18.2546 43.6443 21.8084 44.2565 25.58C44.8688 29.3516 48.4225 31.9128 52.1941 31.3006Z" fill="#F0D224"/>
<path d="M73.6735 18.5501C73.6735 8.25534 81.7435 0 92.5749 0C100.791 0 107.915 5.59138 110.042 13.554H102.567C100.781 9.34824 97.5223 6.77211 92.2236 6.77211C85.7443 6.77211 80.592 12.0707 80.592 18.5501C80.592 25.0295 85.7345 30.3281 92.2236 30.3281C97.2198 30.3281 100.44 27.8496 102.362 23.8488H109.983C107.71 31.665 100.684 37.11 92.5652 37.11C81.5288 37.11 73.6638 28.8449 73.6638 18.5599L73.6735 18.5501Z" fill="white"/>
<path d="M111.915 24.2488C111.915 17.1254 117.604 11.3877 124.728 11.3877C131.851 11.3877 137.54 17.1254 137.54 24.2488C137.54 31.3722 131.851 37.11 124.728 37.11C117.604 37.11 111.915 31.3722 111.915 24.2488ZM130.963 24.2488C130.963 20.7359 128.143 17.8183 124.728 17.8183C121.312 17.8183 118.541 20.7359 118.541 24.2488C118.541 27.7617 121.215 30.6794 124.728 30.6794C128.241 30.6794 130.963 27.7617 130.963 24.2488Z" fill="white"/>
<path d="M147.045 48H140.263V11.8756H147.045V14.6957C148.625 12.7636 151.104 11.3779 154.47 11.3779C160.062 11.3779 166.444 15.4861 166.444 24.2391C166.444 32.9921 159.867 37.1002 154.568 37.1002C151.25 37.1002 148.635 36.0073 147.045 34.1826V48ZM159.808 24.1903C159.808 20.3846 156.988 17.5645 153.182 17.5645C149.377 17.5645 146.849 20.4822 146.849 24.1903C146.849 27.8984 149.474 30.8746 153.182 30.8746C156.89 30.8746 159.808 27.9569 159.808 24.1903Z" fill="white"/>
<path d="M175.743 48H168.961V11.8756H175.743V14.6957C177.324 12.7636 179.802 11.3779 183.169 11.3779C188.76 11.3779 195.142 15.4861 195.142 24.2391C195.142 32.9921 188.565 37.1002 183.267 37.1002C179.949 37.1002 177.334 36.0073 175.743 34.1826V48ZM188.507 24.1903C188.507 20.3846 185.687 17.5645 181.881 17.5645C178.075 17.5645 175.548 20.4822 175.548 24.1903C175.548 27.8984 178.173 30.8746 181.881 30.8746C185.589 30.8746 188.507 27.9569 188.507 24.1903Z" fill="white"/>
<path d="M197.162 24.2488C197.162 17.1254 202.851 11.3877 209.974 11.3877C217.098 11.3877 222.787 17.223 222.787 24.3464V26.5225H203.641C204.383 29.4401 206.559 31.3234 209.974 31.3234C212.746 31.3234 214.326 30.1817 215.166 28.357H222.387C220.406 33.8508 216.298 37.11 209.916 37.11C202.148 37.11 197.152 31.3722 197.152 24.2488H197.162ZM204.09 21.0287H215.771C214.834 18.6087 212.658 17.3694 210.033 17.3694C207.262 17.3694 205.232 18.8526 204.1 21.0287H204.09Z" fill="white"/>
<path d="M225.568 0.497662H232.35V36.6123H225.568V0.497662Z" fill="white"/>
</g>
<defs>
<clipPath id="clip0_15478_25933">
<rect width="233" height="48" fill="white"/>
</clipPath>
</defs>
</svg>
