<svg width="30" height="30" viewBox="0 0 30 30" fill="none" xmlns="http://www.w3.org/2000/svg">
<path fill-rule="evenodd" clip-rule="evenodd" d="M3.53974 3.53974C3.64525 3.43426 3.78833 3.375 3.9375 3.375H8.4375C9.36947 3.375 10.125 2.61947 10.125 1.6875C10.125 0.755518 9.36947 0 8.4375 0H3.9375C2.89321 0 1.89169 0.414844 1.15326 1.15326C0.414844 1.89169 0 2.89321 0 3.9375V8.4375C0 9.36947 0.755518 10.125 1.6875 10.125C2.61947 10.125 3.375 9.36947 3.375 8.4375V3.9375C3.375 3.78833 3.43426 3.64525 3.53974 3.53974ZM19.125 1.6875C19.125 0.755518 19.8805 0 20.8125 0H25.3125C26.3567 0 27.3582 0.414844 28.0966 1.15326C28.8351 1.89169 29.25 2.89321 29.25 3.9375V8.4375C29.25 9.36947 28.4944 10.125 27.5625 10.125C26.6306 10.125 25.875 9.36947 25.875 8.4375V3.9375C25.875 3.78833 25.8158 3.64525 25.7103 3.53974C25.6048 3.43426 25.4617 3.375 25.3125 3.375H20.8125C19.8805 3.375 19.125 2.61947 19.125 1.6875ZM27.5625 19.125C28.4944 19.125 29.25 19.8805 29.25 20.8125V25.3125C29.25 26.3567 28.8351 27.3582 28.0966 28.0966C27.3582 28.8351 26.3567 29.25 25.3125 29.25H20.8125C19.8805 29.25 19.125 28.4944 19.125 27.5625C19.125 26.6306 19.8805 25.875 20.8125 25.875H25.3125C25.4617 25.875 25.6048 25.8158 25.7103 25.7103C25.8158 25.6048 25.875 25.4617 25.875 25.3125V20.8125C25.875 19.8805 26.6306 19.125 27.5625 19.125ZM1.6875 19.125C2.61947 19.125 3.375 19.8805 3.375 20.8125V25.3125C3.375 25.4617 3.43426 25.6048 3.53974 25.7103C3.64525 25.8158 3.78833 25.875 3.9375 25.875H8.4375C9.36947 25.875 10.125 26.6306 10.125 27.5625C10.125 28.4944 9.36947 29.25 8.4375 29.25H3.9375C2.89321 29.25 1.89169 28.8351 1.15326 28.0966C0.414844 27.3582 0 26.3567 0 25.3125V20.8125C0 19.8805 0.755518 19.125 1.6875 19.125ZM24.75 14.625C24.75 20.2169 20.2169 24.75 14.625 24.75C9.03312 24.75 4.5 20.2169 4.5 14.625C4.5 9.03312 9.03312 4.5 14.625 4.5C20.2169 4.5 24.75 9.03312 24.75 14.625ZM10.6875 10.6875C11.6195 10.6875 12.375 11.443 12.375 12.375C12.375 13.307 11.6195 14.0625 10.6875 14.0625C9.75553 14.0625 9 13.307 9 12.375C9 11.443 9.75553 10.6875 10.6875 10.6875ZM18.9207 16.7914C19.6131 17.1433 19.8891 17.9898 19.5372 18.6822L18.2836 18.045C19.5372 18.6822 19.5369 18.6829 19.5365 18.6836L19.5357 18.6851L19.5341 18.6883L19.5305 18.6952L19.5222 18.711L19.5005 18.7508C19.4838 18.7807 19.4625 18.8175 19.4363 18.8601C19.3839 18.9453 19.3116 19.0545 19.217 19.1795C19.0283 19.4289 18.747 19.7461 18.3544 20.0592C17.5518 20.6991 16.3328 21.2805 14.6251 21.2805C12.9174 21.2805 11.6983 20.6991 10.8958 20.0592C10.5032 19.7461 10.2218 19.4289 10.0332 19.1795C9.93854 19.0545 9.86621 18.9453 9.81385 18.8601C9.78763 18.8175 9.76633 18.7807 9.74961 18.7508L9.72794 18.711L9.71962 18.6952L9.71606 18.6883L9.71444 18.6851L9.71366 18.6836C9.71327 18.6829 9.71291 18.6822 10.9665 18.045L9.71291 18.6822C9.36104 17.9898 9.63706 17.1433 10.3294 16.7914C11.0132 16.4439 11.8473 16.7088 12.2068 17.3823L12.2098 17.3872C12.219 17.4021 12.2406 17.4357 12.2758 17.4822C12.3466 17.5759 12.4683 17.7159 12.6492 17.8602C12.9937 18.1349 13.6039 18.468 14.6251 18.468C15.6462 18.468 16.2564 18.1349 16.6009 17.8602C16.7818 17.7159 16.9035 17.5759 16.9744 17.4822C17.0096 17.4357 17.0312 17.4021 17.0403 17.3872L17.0433 17.3823C17.4028 16.7088 18.2369 16.4439 18.9207 16.7914ZM20.25 12.375C20.25 11.443 19.4945 10.6875 18.5625 10.6875C17.6305 10.6875 16.875 11.443 16.875 12.375C16.875 13.307 17.6305 14.0625 18.5625 14.0625C19.4945 14.0625 20.25 13.307 20.25 12.375Z" fill="#081754"/>
</svg>
