<svg width="24" height="24" viewBox="0 0 24 24" fill="none" xmlns="http://www.w3.org/2000/svg">
<path fill-rule="evenodd" clip-rule="evenodd" d="M3.92877 7.74821C5.09124 4.12487 8.48762 1.5 12.5 1.5C13.7119 1.5 14.8706 1.74016 15.9289 2.17653C16.5033 2.41338 16.7769 3.07104 16.5401 3.64544C16.3032 4.21985 15.6455 4.49349 15.0711 4.25664C14.2802 3.93048 13.4126 3.75 12.5 3.75C9.49372 3.75 6.94369 5.71611 6.07123 8.43556C5.88142 9.02718 5.24795 9.3529 4.65632 9.16311C4.06471 8.9733 3.73898 8.33984 3.92877 7.74821ZM19.6807 5.07359C19.3058 4.57814 18.6002 4.48043 18.1047 4.85535C17.6093 5.23027 17.5115 5.93584 17.8865 6.43129C18.7425 7.56267 19.25 8.97045 19.25 10.5V13.5C19.25 17.228 16.2279 20.25 12.5 20.25C11.8787 20.25 11.375 20.7537 11.375 21.375C11.375 21.9963 11.8787 22.5 12.5 22.5C17.4706 22.5 21.5 18.4706 21.5 13.5V10.5C21.5 8.46358 20.8223 6.58222 19.6807 5.07359ZM5.75 12C5.75 11.3787 5.24632 10.875 4.625 10.875C4.00368 10.875 3.5 11.3787 3.5 12V13.5C3.5 16.9205 5.40856 19.8936 8.21351 21.4153C8.75963 21.7116 9.44255 21.5091 9.73884 20.9629C10.0351 20.417 9.83261 19.734 9.28649 19.4377C7.17773 18.2936 5.75 16.0627 5.75 13.5V12ZM9.70413 9.40925C9.93015 8.8305 9.64421 8.17809 9.06545 7.95207C8.48671 7.72605 7.83429 8.01201 7.60827 8.59075C7.37662 9.18398 7.25 9.82856 7.25 10.5V13.5C7.25 16.3995 9.6005 18.75 12.5 18.75C13.7831 18.75 14.9613 18.2883 15.8731 17.5231C16.349 17.1238 16.4111 16.4142 16.0117 15.9382C15.6124 15.4623 14.9028 15.4002 14.4268 15.7996C13.9051 16.2373 13.2347 16.5 12.5 16.5C10.8431 16.5 9.5 15.1569 9.5 13.5V10.5C9.5 10.1131 9.57269 9.74582 9.70413 9.40925ZM11.5468 5.33653C11.8567 5.27959 12.1754 5.25 12.5 5.25C15.3995 5.25 17.75 7.6005 17.75 10.5V12.75C17.75 13.3713 17.2463 13.875 16.625 13.875C16.0037 13.875 15.5 13.3713 15.5 12.75V10.5C15.5 8.84314 14.1569 7.5 12.5 7.5C12.3124 7.5 12.1297 7.51709 11.9532 7.5495C11.3421 7.66176 10.7558 7.25736 10.6435 6.64626C10.5313 6.03516 10.9357 5.44878 11.5468 5.33653ZM13.625 10.875C13.625 10.2537 13.1213 9.75 12.5 9.75C11.8787 9.75 11.375 10.2537 11.375 10.875V13.125C11.375 13.7463 11.8787 14.25 12.5 14.25C13.1213 14.25 13.625 13.7463 13.625 13.125V10.875Z" fill="#081754"/>
</svg>
