<svg width="24" height="24" viewBox="0 0 24 24" fill="none" xmlns="http://www.w3.org/2000/svg">
<path fill-rule="evenodd" clip-rule="evenodd" d="M10.9394 3.43934C11.5251 2.85355 12.4749 2.85355 13.0607 3.43934L15 5.37869V4.5C15 4.08579 15.3358 3.75 15.75 3.75H18.75C19.1642 3.75 19.5 4.08579 19.5 4.5V9.8787L22.0607 12.4394C22.6464 13.0251 22.6464 13.9749 22.0607 14.5607C21.4749 15.1465 20.5251 15.1465 19.9394 14.5607L19.5 14.1213V19.5C19.5 20.3285 18.8285 21 18 21H13.5V16.5C13.5 15.6716 12.8284 15 12 15C11.1716 15 10.5 15.6716 10.5 16.5V21H6.00001C5.17159 21 4.50001 20.3285 4.50001 19.5V14.1213L4.06067 14.5607C3.47487 15.1465 2.52513 15.1465 1.93934 14.5607C1.35355 13.9749 1.35355 13.0251 1.93934 12.4394L10.9394 3.43934Z" fill="white"/>
</svg>
