<svg xmlns="http://www.w3.org/2000/svg" width="88" height="89" viewBox="0 0 88 89" fill="none">
<path d="M21.7424 56.0848C28.2828 56.0848 33.5848 50.7828 33.5848 44.2424C33.5848 37.702 28.2828 32.4 21.7424 32.4C15.202 32.4 9.89999 37.702 9.89999 44.2424C9.89999 50.7828 15.202 56.0848 21.7424 56.0848Z" fill="#F0D224"/>
<path d="M44.3738 50.6314C47.9024 50.6314 50.7628 47.771 50.7628 44.2424C50.7628 40.7139 47.9024 37.8534 44.3738 37.8534C40.8453 37.8534 37.9848 40.7139 37.9848 44.2424C37.9848 47.771 40.8453 50.6314 44.3738 50.6314Z" fill="#F0D224"/>
<path d="M61.5519 50.6314C65.0804 50.6314 67.9409 47.771 67.9409 44.2424C67.9409 40.7139 65.0804 37.8534 61.5519 37.8534C58.0233 37.8534 55.1628 40.7139 55.1628 44.2424C55.1628 47.771 58.0233 50.6314 61.5519 50.6314Z" fill="#F0D224"/>
<path d="M72.4262 44.3277C72.4733 44.3277 72.5115 44.2895 72.5115 44.2424C72.5115 44.1953 72.4733 44.1571 72.4262 44.1571C72.3791 44.1571 72.3409 44.1953 72.3409 44.2424C72.3409 44.2895 72.3791 44.3277 72.4262 44.3277Z" fill="#F0D224"/>
</svg>