<svg width="67" height="68" viewBox="0 0 67 68" fill="none" xmlns="http://www.w3.org/2000/svg">
<path d="M22.6445 32.89H44.4726V41.2055L54.1739 32.89H60.2373C61.5238 32.89 62.7576 32.3894 63.6672 31.4983C64.5769 30.6072 65.088 29.3986 65.088 28.1383V6.75562C65.088 5.49539 64.5769 4.28677 63.6672 3.39565C62.7576 2.50453 61.5238 2.00391 60.2373 2.00391H27.4952C26.2087 2.00391 24.9749 2.50453 24.0653 3.39565C23.1556 4.28677 22.6445 5.49539 22.6445 6.75562V17.447" fill="#F0D224"/>
<rect x="3.29883" y="26.0098" width="23.6638" height="29.8041" fill="white"/>
<rect x="3.29883" y="55.8145" width="23.6638" height="9.93469" fill="#1C42E8"/>
<path d="M23.1868 2.50014C24.3337 1.37667 25.8838 0.75 27.4948 0.75H60.2369C61.8479 0.75 63.3979 1.37667 64.5448 2.50014C65.6926 3.62448 66.3422 5.15497 66.3422 6.75642V28.1391C66.3422 29.7406 65.6926 31.2711 64.5448 32.3954C63.3979 33.5189 61.8479 34.1455 60.2369 34.1455H54.6377L45.2887 42.159C44.9167 42.4779 44.393 42.551 43.9479 42.3463C43.5027 42.1415 43.2174 41.6963 43.2174 41.2063V34.1455H37.1961C36.5032 34.1455 35.9414 33.5838 35.9414 32.8908C35.9414 32.1979 36.5032 31.6361 37.1961 31.6361H44.4721C45.1651 31.6361 45.7268 32.1979 45.7268 32.8908V38.4783L53.357 31.9382C53.5844 31.7433 53.874 31.6361 54.1735 31.6361H60.2369C61.1988 31.6361 62.1163 31.2616 62.7888 30.6028C63.4604 29.9449 63.8328 29.0581 63.8328 28.1391V6.75642C63.8328 5.8374 63.4604 4.95066 62.7888 4.29275C62.1163 3.63399 61.1988 3.25941 60.2369 3.25941H27.4948C26.5328 3.25941 25.6153 3.63399 24.9428 4.29275C24.2712 4.95066 23.8988 5.83739 23.8988 6.75642V17.4478C23.8988 18.1407 23.337 18.7025 22.6441 18.7025C21.9511 18.7025 21.3894 18.1407 21.3894 17.4478V6.75642C21.3894 5.15497 22.039 3.62448 23.1868 2.50014Z" fill="#081754"/>
<path fill-rule="evenodd" clip-rule="evenodd" d="M29.4837 30.4247C29.4837 26.8879 26.5641 24.0646 23.0174 24.0646H7.38238C3.83561 24.0646 0.916016 26.8879 0.916016 30.4247V61.0566C0.916016 64.5934 3.83561 67.4167 7.38238 67.4167H23.0174C26.5641 67.4167 29.4837 64.5934 29.4837 61.0566V30.4247ZM7.38238 26.574C5.1725 26.574 3.42542 28.3223 3.42542 30.4247V54.6979H26.9743V30.4247C26.9743 28.3223 25.2272 26.574 23.0174 26.574H7.38238ZM26.9743 57.2073H3.42542V61.0566C3.42542 63.159 5.1725 64.9073 7.38238 64.9073H23.0174C25.2272 64.9073 26.9743 63.159 26.9743 61.0566V57.2073Z" fill="#081754"/>
<path d="M32.0611 13.893C31.5661 13.4081 30.7717 13.4162 30.2868 13.9112C29.8019 14.4062 29.81 15.2006 30.305 15.6856L32.0222 17.3678L30.305 19.0501C29.81 19.535 29.8019 20.3294 30.2868 20.8244C30.7717 21.3194 31.5661 21.3276 32.0611 20.8426L33.8151 19.1243L35.5692 20.8426C36.0642 21.3276 36.8586 21.3194 37.3435 20.8244C37.8284 20.3294 37.8203 19.535 37.3253 19.0501L35.6081 17.3678L37.3253 15.6856C37.8203 15.2006 37.8284 14.4062 37.3435 13.9112C36.8586 13.4162 36.0642 13.4081 35.5692 13.893L33.8151 15.6114L32.0611 13.893Z" fill="#081754"/>
<path d="M44.4483 12.4662C45.1412 12.4662 45.703 13.0279 45.703 13.7209V16.1129H48.1706C48.8636 16.1129 49.4253 16.6746 49.4253 17.3676C49.4253 18.0606 48.8636 18.6223 48.1706 18.6223H45.703V21.0142C45.703 21.7072 45.1412 22.2689 44.4483 22.2689C43.7553 22.2689 43.1936 21.7072 43.1936 21.0142V18.6223H40.7254C40.0324 18.6223 39.4707 18.0606 39.4707 17.3676C39.4707 16.6746 40.0324 16.1129 40.7254 16.1129H43.1936V13.7209C43.1936 13.0279 43.7553 12.4662 44.4483 12.4662Z" fill="#081754"/>
<path d="M53.3336 13.893C52.8386 13.4081 52.0442 13.4162 51.5593 13.9112C51.0743 14.4062 51.0825 15.2006 51.5775 15.6856L53.2947 17.3678L51.5775 19.0501C51.0825 19.535 51.0743 20.3294 51.5593 20.8244C52.0442 21.3194 52.8386 21.3276 53.3336 20.8426L55.0876 19.1243L56.8416 20.8426C57.3366 21.3276 58.131 21.3194 58.616 20.8244C59.1009 20.3294 59.0927 19.535 58.5977 19.0501L56.8805 17.3678L58.5977 15.6856C59.0927 15.2006 59.1009 14.4062 58.616 13.9112C58.131 13.4162 57.3366 13.4081 56.8416 13.893L55.0876 15.6114L53.3336 13.893Z" fill="#081754"/>
</svg>
