<svg width="80" height="80" viewBox="0 0 80 80" fill="none" xmlns="http://www.w3.org/2000/svg">
<path d="M41.2103 10.3177L43.7988 12.1667H36.1999L38.7884 10.3177C39.5128 9.80034 40.4859 9.80034 41.2103 10.3177Z" fill="#F0D224"/>
<path d="M65.9993 37.4193V28.0242L69.9602 30.8535C70.5077 31.2445 70.8327 31.8759 70.8327 32.5487V34.6874L65.9993 37.4193Z" fill="#F0D224"/>
<path d="M15.8327 26.7147V38.4555L9.16602 34.6874V32.5487C9.16602 31.8759 9.49094 31.2445 10.0384 30.8535L15.8327 26.7147Z" fill="#F0D224"/>
<path d="M9.16602 66.2362L29.256 48.7667H50.7427L70.8327 66.2362V68.75C70.8327 69.9006 69.8999 70.8333 68.7493 70.8333H11.2493C10.0988 70.8333 9.16602 69.9006 9.16602 68.75V66.2362Z" fill="#F0D224"/>
<path d="M63.4993 14.666V38.8316L50.3842 46.2445C50.3719 46.2515 50.3596 46.2587 50.3476 46.2661H29.651C29.639 46.2587 29.6267 46.2515 29.6144 46.2445L18.3262 39.8568L18.3326 39.0827V14.666H63.4993Z" fill="white"/>
<path d="M70.8327 62.9228V37.5586L53.1657 47.5443L53.1652 47.5598L70.8327 62.9228Z" fill="#1C42E8"/>
<path d="M9.16602 62.9228L26.8334 47.5598L26.833 47.5443L9.16602 37.5586V62.9228Z" fill="#1C42E8"/>
<path d="M35.6526 20.9454C36.8948 20.4308 38.2262 20.166 39.5708 20.166C40.9153 20.166 42.2467 20.4308 43.489 20.9454C44.7312 21.4599 45.8599 22.2141 46.8106 23.1649C47.7614 24.1156 48.5156 25.2443 49.0301 26.4866C49.5447 27.7288 49.8095 29.0602 49.8095 30.4048C49.8095 31.7493 49.5447 33.0807 49.0301 34.3229C48.5156 35.5652 47.7614 36.6939 46.8106 37.6446C45.8599 38.5954 44.7312 39.3496 43.489 39.8641C42.2467 40.3787 40.9153 40.6435 39.5708 40.6435C38.2262 40.6435 36.8948 40.3787 35.6526 39.8641C34.4104 39.3496 33.2816 38.5954 32.3309 37.6446C31.3801 36.6939 30.626 35.5652 30.1114 34.3229C29.5969 33.0807 29.332 31.7493 29.332 30.4048C29.332 29.0602 29.5969 27.7288 30.1114 26.4866C30.626 25.2443 31.3801 24.1156 32.3309 23.1649C33.2816 22.2141 34.4104 21.4599 35.6526 20.9454Z" fill="#0ABF4F"/>
<path fill-rule="evenodd" clip-rule="evenodd" d="M34.6965 18.6364C36.242 17.9962 37.8985 17.6667 39.5714 17.6667C41.2443 17.6667 42.9007 17.9962 44.4463 18.6364C45.9918 19.2766 47.3961 20.2149 48.579 21.3978C49.7619 22.5807 50.7003 23.985 51.3404 25.5305C51.9806 27.0761 52.3101 28.7326 52.3101 30.4054C52.3101 32.0783 51.9806 33.7348 51.3404 35.2803C50.7003 36.8259 49.7619 38.2302 48.579 39.4131C47.3961 40.596 45.9918 41.5343 44.4463 42.1745C42.9007 42.8147 41.2443 43.1442 39.5714 43.1442C37.8985 43.1442 36.242 42.8147 34.6965 42.1745C33.1509 41.5343 31.7466 40.596 30.5637 39.4131C29.3808 38.2302 28.4425 36.8259 27.8023 35.2803C27.1621 33.7348 26.8326 32.0783 26.8326 30.4054C26.8326 28.7326 27.1621 27.0761 27.8023 25.5305C28.4425 23.985 29.3808 22.5807 30.5637 21.3978C31.7466 20.2149 33.1509 19.2766 34.6965 18.6364ZM39.5714 20.1667C38.2268 20.1667 36.8954 20.4315 35.6532 20.9461C34.411 21.4606 33.2823 22.2148 32.3315 23.1656C31.3807 24.1163 30.6266 25.245 30.112 26.4872C29.5975 27.7295 29.3326 29.0609 29.3326 30.4054C29.3326 31.75 29.5975 33.0814 30.112 34.3236C30.6266 35.5659 31.3807 36.6946 32.3315 37.6453C33.2823 38.5961 34.411 39.3503 35.6532 39.8648C36.8954 40.3793 38.2268 40.6442 39.5714 40.6442C40.9159 40.6442 42.2474 40.3793 43.4896 39.8648C44.7318 39.3503 45.8605 38.5961 46.8113 37.6453C47.762 36.6946 48.5162 35.5659 49.0307 34.3236C49.5453 33.0814 49.8101 31.75 49.8101 30.4054C49.8101 29.0609 49.5453 27.7295 49.0307 26.4872C48.5162 25.245 47.762 24.1163 46.8113 23.1656C45.8605 22.2148 44.7318 21.4606 43.4896 20.9461C42.2474 20.4315 40.916 20.1667 39.5714 20.1667Z" fill="#081754"/>
<path fill-rule="evenodd" clip-rule="evenodd" d="M40.1233 25.2132C40.6115 24.7251 41.4029 24.7251 41.8911 25.2132L46.1994 29.5215C46.4338 29.7559 46.5655 30.0739 46.5655 30.4054C46.5655 30.7369 46.4338 31.0548 46.1994 31.2893L41.8833 35.6053C41.3951 36.0934 40.6037 36.0934 40.1155 35.6053C39.6274 35.1171 39.6274 34.3257 40.1155 33.8375L42.2977 31.6554H33.8269C33.1365 31.6554 32.5769 31.0957 32.5769 30.4054C32.5769 29.715 33.1365 29.1554 33.8269 29.1554H42.2977L40.1233 26.981C39.6352 26.4928 39.6352 25.7014 40.1233 25.2132Z" fill="#081754"/>
<path fill-rule="evenodd" clip-rule="evenodd" d="M42.6634 8.28341C41.0697 7.14511 38.929 7.14511 37.3353 8.28341L31.8988 12.1667H17.0827C16.3923 12.1667 15.8327 12.7263 15.8327 13.4167V23.6424L8.58534 28.8191C7.38086 29.6795 6.66602 31.0685 6.66602 32.5487V68.75C6.66602 71.2813 8.71804 73.3333 11.2493 73.3333H68.7494C71.2807 73.3333 73.3327 71.2813 73.3327 68.75V32.5487C73.3327 31.0685 72.6178 29.6795 71.4134 28.8191L65.9994 24.952V13.4167C65.9994 12.7263 65.4397 12.1667 64.7494 12.1667H48.0999L42.6634 8.28341ZM43.7988 12.1667L41.2103 10.3177C40.4859 9.80034 39.5128 9.80034 38.7884 10.3177L36.1999 12.1667H43.7988ZM65.9994 28.0242V37.4193L70.8327 34.6874V32.5487C70.8327 31.8759 70.5078 31.2445 69.9603 30.8535L65.9994 28.0242ZM63.4994 38.8323V14.6667H18.3327L18.3435 39.8503L29.6144 46.2452C29.6268 46.2522 29.639 46.2593 29.6511 46.2667H50.3476C50.3597 46.2593 50.3719 46.2522 50.3843 46.2452L63.4994 38.8323ZM15.8327 38.4555V26.7147L10.0384 30.8535C9.49094 31.2445 9.16602 31.8759 9.16602 32.5487V34.6874L15.8327 38.4555ZM70.8327 37.5591V62.9232L53.1652 47.5602L53.1657 47.5448L70.8327 37.5591ZM29.256 48.7667L9.16602 66.2362V68.75C9.16602 69.9006 10.0988 70.8333 11.2493 70.8333H68.7494C69.8999 70.8333 70.8327 69.9006 70.8327 68.75V66.2362L50.7427 48.7667H29.256ZM26.8334 47.5603L9.16602 62.9232V37.5591L26.833 47.5447L26.8334 47.5603Z" fill="#081754"/>
</svg>
